<?xml version="1.0" encoding="utf-8"?>
<!-- Generator: Adobe Illustrator 27.1.1, SVG Export Plug-In . SVG Version: 6.00 Build 0)  -->
<svg version="1.1" id="Layer_1" xmlns="http://www.w3.org/2000/svg" xmlns:xlink="http://www.w3.org/1999/xlink" x="0px" y="0px"
	 viewBox="0 0 1017.7 242.7" style="enable-background:new 0 0 1017.7 242.7;" xml:space="preserve">
<style type="text/css">
	.st0{fill-rule:evenodd;clip-rule:evenodd;fill:#2D5B28;}
	.st1{fill-rule:evenodd;clip-rule:evenodd;fill:#44953D;}
	.st2{fill:#44953D;}
	.st3{fill:#162919;}
</style>
<g>
	<g>
		<g>
			<g>
				<path class="st0" d="M42.7,76.9C42.8,83.1,47.6,88,53.5,88S64.1,82.9,64,76.7c-0.1-6.2-4.9-11.2-10.8-11.1
					C47.4,65.7,42.6,70.8,42.7,76.9z"/>
				<path class="st0" d="M17.7,125.4c1.7-11.5,10.5-19.8,19.2-12.4c13.2,11.3,2,35.2-7.5,53.9h11.4c28.4-21.5,45.5-90.5,35.3-121.1
					C72.5,88.7,64,93.7,39.6,93.7C14.2,93.7,16.5,124.5,17.7,125.4z"/>
			</g>
			<path class="st0" d="M182.8,170.9c0,0-85.5-2.7-182.7,8.2v19.3c0,0,137.2-7.2,182.7-0.7V170.9z"/>
		</g>
		<g>
			<g>
				<path class="st1" d="M81.7,28c0.4,6.2,5.5,10.9,11.4,10.6c5.9-0.3,10.3-5.6,10-11.8s-5.5-10.9-11.4-10.6
					C85.9,16.5,81.4,21.8,81.7,28z"/>
				<path class="st1" d="M150.2,50.5c0,0-15.3-16.3-39.7-11C86,44.8,75.8,47.3,70.2,0c0,0-13,56.4,49.8,145.3c0,0-10.7-33-12.6-55.5
					c19.6,13.1,58.2,11.8,58.2,11.8S134.2,89.2,123.1,78S101.3,38.6,150.2,50.5z"/>
			</g>
			<path class="st1" d="M0,219.4v23.3c63.7-12.3,124.8-27.4,182.7-45v-26.9C125,189.5,63.9,205.8,0,219.4z"/>
			<path class="st2" d="M182.7,120.5C57.5,143.6,0,177.6,0,177.6v20.8c59-29.4,122.2-50.2,182.7-64.8V120.5z"/>
		</g>
	</g>
	<g>
		<g>
			<path class="st3" d="M248.1,95.1h7.6c0.6,5.2,4.3,11.5,14.8,11.5c9.8,0,13.7-4.8,13.7-9.3c0-4.7-2.3-7.8-11.4-9.4l-5.6-1
				c-11.9-2.1-16.6-7.2-16.6-15.7c0-8.2,7.1-15.7,19.1-15.7c14.6,0,20.6,9.1,21.4,17.1h-7.8c-1.1-5.6-4.6-10.7-13.6-10.7
				c-8.6,0-11.8,4.8-11.8,8.6c0,4.9,2.6,7.2,11,8.7l5.7,1c11.2,2,17.8,7.3,17.8,16.5c0,9.5-8.4,16.4-21.8,16.4
				C256.4,113.1,248.8,104.9,248.1,95.1z"/>
			<path class="st3" d="M308.3,109.5l-4,4.2l-4-3.8l3.9-4.2c-2.7-3.5-4.3-8-4.3-13.2c0-12.2,8.7-20.6,20.6-20.6
				c4.6,0,8.8,1.3,12.2,3.6l3.9-4.2l4,3.8l-3.9,4.2c2.7,3.5,4.4,8,4.4,13.3c0,12.2-8.7,20.6-20.6,20.6
				C315.8,113.1,311.6,111.8,308.3,109.5z M309.2,100.4L328,80.3c-2-1.5-4.6-2.4-7.6-2.4c-8.1,0-13,5.9-13,14.4
				C307.4,95.4,308,98.1,309.2,100.4z M320.4,107c8,0,13-6.2,13-14.6c0-3-0.6-5.6-1.8-7.9l-18.8,20.2
				C314.8,106.1,317.4,107,320.4,107z"/>
			<path class="st3" d="M351.1,73.1h7.1v7.3c1.6-3.3,5.6-7.7,12.9-7.7h1.1v7.4h-2c-8.6,0-11.8,5-11.8,12.7v19.1H351L351.1,73.1
				L351.1,73.1z"/>
			<path class="st3" d="M380,102.9V56.6h7.3v45.8c0,2.5,1.2,3.5,3.5,3.5h1.5v6h-3C383,111.9,380,108.5,380,102.9z"/>
			<path class="st3" d="M398.6,92.5c0-11.8,7.5-20.6,19.1-20.6c7.6,0,12.2,3.6,14,6.3v-5.1h7.1v38.8h-7.1v-5.6
				c-0.9,1.4-5.3,6.8-14,6.8C406.2,113.1,398.6,104.6,398.6,92.5z M419,107c7.7,0,13-5.6,13-14.5c0-8.7-5.3-14.4-13-14.4
				c-7.8,0-12.9,5.6-12.9,14.4S411.1,107,419,107z"/>
			<path class="st3" d="M451.7,73.1h7.1v5.3c1.3-2.2,5.2-6.4,12.4-6.4c8.3,0,14.4,5.1,14.4,14.7V112h-7.3V87.5
				c0-7.1-3.5-9.6-8.9-9.6c-7.5,0-10.4,5.9-10.4,13.7v20.3h-7.4L451.7,73.1L451.7,73.1z"/>
			<path class="st3" d="M495.2,92.5c0-11.8,7.6-20.6,19.1-20.6c7.6,0,11.8,3.6,13.7,6.1V56.6h7.4v55.3h-7.1v-5.6
				c-0.9,1.4-5.3,6.8-14,6.8C502.8,113.1,495.2,104.6,495.2,92.5z M515.6,107c7.7,0,13-5.6,13-14.5c0-8.7-5.3-14.4-13-14.4
				c-7.8,0-12.9,5.6-12.9,14.4C502.8,101.3,507.8,107,515.6,107z"/>
			<path class="st3" d="M545.7,92.6c0-12.4,7.2-20.7,19.1-20.7c12.3,0,19.5,9.2,18.8,22.4h-30.4c0.2,8,4.4,12.8,11.5,12.8
				c6.3,0,9.2-3.3,10.7-7.1h7.5c-1.2,5.1-6,13.2-18,13.2C552.5,113.1,545.7,104.9,545.7,92.6z M575.7,88.6
				c-0.3-7.5-5.4-10.9-11-10.9c-6.5,0-10.6,3.6-11.5,10.9H575.7z"/>
			<path class="st3" d="M595.6,99.9V78.7h-7.1v-5.6h7.1v-9.8h7.3v9.8h9.3v5.6h-9.3v21.4c0,4.2,2,5.5,5.6,5.5h3.6v6.3h-5.9
				C599.4,111.9,595.6,107.7,595.6,99.9z"/>
			<path class="st3" d="M618.3,99.3h6.7c0.5,3.4,3.1,7.9,10.7,7.9c5.5,0,8.8-2.4,8.8-5.6c0-3.1-1.8-4.6-8.2-5.9l-3.6-0.7
				c-9.8-1.9-12.5-5.9-12.5-11.7c0-6.4,6-11.5,14.4-11.5c11.5,0,15.9,6.2,16.6,11.7h-7c-0.8-3.5-3.8-5.8-9.7-5.8c-5,0-7.5,2.2-7.5,5
				c0,2.9,2.3,4.2,7.8,5.3l3.9,0.8c8.7,1.7,13.3,5.5,13.3,12.2c0,6.8-5.6,11.9-16.2,11.9C623.3,113.1,618.5,106.1,618.3,99.3z"/>
		</g>
		<g>
			<path class="st3" d="M251.3,158.9h7.1v7.3c1.6-3.3,5.6-7.7,12.9-7.7h1.1v7.4h-2c-8.6,0-11.8,5-11.8,12.7v19.1h-7.4L251.3,158.9
				L251.3,158.9z"/>
			<path class="st3" d="M276.8,178.4c0-12.4,7.2-20.7,19.1-20.7c12.3,0,19.5,9.2,18.8,22.4h-30.4c0.2,8,4.4,12.8,11.5,12.8
				c6.3,0,9.2-3.3,10.7-7.1h7.5c-1.2,5.1-6,13.2-18,13.2C283.6,198.9,276.8,190.6,276.8,178.4z M306.8,174.4
				c-0.3-7.5-5.4-10.9-11-10.9c-6.5,0-10.6,3.6-11.5,10.9H306.8z"/>
			<path class="st3" d="M324.8,142.4h7.4v21.3c1.3-2.1,5.1-6,12.2-6c8.3,0,14.4,5.1,14.4,14.7v25.3h-7.4v-23.9
				c0-7.4-3.5-10.1-8.9-10.1c-7.3,0-10.2,5.8-10.2,13.4v20.6h-7.4v-55.3H324.8z"/>
			<path class="st3" d="M368.4,178.2c0-11.8,7.5-20.6,19.1-20.6c7.6,0,12.2,3.6,14,6.3v-5.1h7.1v38.8h-7.1V192
				c-0.9,1.4-5.3,6.8-14,6.8C376,198.9,368.4,190.4,368.4,178.2z M388.8,192.8c7.7,0,13-5.6,13-14.5c0-8.7-5.3-14.4-13-14.4
				c-7.8,0-12.9,5.6-12.9,14.4C375.9,187,380.9,192.8,388.8,192.8z"/>
			<path class="st3" d="M428.6,192.1v5.6h-7.1v-55.3h7.4v21.4c1.9-2.5,5.9-6.1,13.6-6.1c11.6,0,19.3,8.7,19.3,20.6
				c0,12.2-7.7,20.6-19.2,20.6C433.7,198.9,429.5,193.5,428.6,192.1z M441.3,192.8c7.8,0,12.9-5.7,12.9-14.5s-5-14.4-12.9-14.4
				c-7.7,0-13,5.7-13,14.4C428.3,187.1,433.6,192.8,441.3,192.8z"/>
			<path class="st3" d="M475.5,141.5c3.1,0,4.8,2.2,4.8,4.6c0,2.5-1.7,4.8-4.8,4.8c-3.1,0-4.7-2.3-4.7-4.8
				C470.8,143.7,472.4,141.5,475.5,141.5z M471.9,158.9h7.4v38.8h-7.4V158.9z"/>
			<path class="st3" d="M491.9,188.7v-46.3h7.3v45.8c0,2.5,1.2,3.5,3.5,3.5h1.5v6h-3C494.8,197.7,491.9,194.3,491.9,188.7z"/>
			<path class="st3" d="M517.4,141.5c3.1,0,4.8,2.2,4.8,4.6c0,2.5-1.7,4.8-4.8,4.8s-4.7-2.3-4.7-4.8
				C512.7,143.7,514.3,141.5,517.4,141.5z M513.8,158.9h7.4v38.8h-7.4V158.9z"/>
			<path class="st3" d="M536.3,185.7v-21.2h-7.1v-5.6h7.1v-9.8h7.3v9.8h9.3v5.6h-9.3v21.4c0,4.2,2,5.5,5.6,5.5h3.6v6.3H547
				C540.2,197.7,536.3,193.5,536.3,185.7z"/>
			<path class="st3" d="M559.3,178.4c0-12.4,7.2-20.7,19.1-20.7c12.3,0,19.5,9.2,18.8,22.4h-30.4c0.2,8,4.4,12.8,11.5,12.8
				c6.3,0,9.2-3.3,10.7-7.1h7.5c-1.2,5.1-6,13.2-18,13.2C566.1,198.9,559.3,190.6,559.3,178.4z M589.3,174.4
				c-0.3-7.5-5.4-10.9-11-10.9c-6.5,0-10.6,3.6-11.5,10.9H589.3z"/>
			<path class="st3" d="M607.3,158.9h7.1v7.3c1.6-3.3,5.6-7.7,12.9-7.7h1.1v7.4h-2c-8.6,0-11.8,5-11.8,12.7v19.1h-7.4v-38.8H607.3z"
				/>
			<path class="st3" d="M640,141.5c3.1,0,4.8,2.2,4.8,4.6c0,2.5-1.7,4.8-4.8,4.8s-4.7-2.3-4.7-4.8
				C635.3,143.7,636.9,141.5,640,141.5z M636.4,158.9h7.4v38.8h-7.4V158.9z"/>
			<path class="st3" d="M656.6,158.9h7.1v5.3c1.3-2.2,5.2-6.4,12.4-6.4c8.3,0,14.4,5.1,14.4,14.7v25.3h-7.3v-24.4
				c0-7.1-3.5-9.6-8.9-9.6c-7.5,0-10.4,5.9-10.4,13.7v20.3h-7.4v-38.9H656.6z"/>
			<path class="st3" d="M701.1,198.6h7.5c0.2,3.7,2.8,7.8,11,7.8c7.4,0,11.9-4.2,11.9-12v-4.8c-2.8,3.9-7.5,6.1-13.8,6.1
				c-9.2,0-17.3-6.8-17.3-18.6c0-11.7,7.5-19.4,17.7-19.4c7.5,0,11.5,3.5,13.7,6v-4.9h7.1v34.8c0,12-7.8,18.5-19.2,18.5
				C707.6,212.2,701.8,206.8,701.1,198.6z M719.9,189.7c7.6,0,12.1-5.4,12.1-12.8c0-8.2-4.5-13.2-12.1-13.2
				c-7.7,0-12.1,4.9-12.1,13.2C707.8,184.3,712.2,189.7,719.9,189.7z"/>
			<path class="st3" d="M748.1,185.1h6.7c0.5,3.4,3.1,7.9,10.7,7.9c5.5,0,8.8-2.4,8.8-5.6c0-3.1-1.8-4.6-8.2-5.9l-3.6-0.7
				c-9.8-1.9-12.5-5.9-12.5-11.7c0-6.4,6-11.5,14.4-11.5c11.5,0,15.9,6.2,16.6,11.7h-7c-0.8-3.5-3.8-5.8-9.7-5.8c-5,0-7.5,2.2-7.5,5
				c0,2.9,2.3,4.2,7.8,5.3l3.9,0.8c8.7,1.7,13.3,5.5,13.3,12.2c0,6.8-5.6,11.9-16.2,11.9C753.1,198.9,748.4,191.9,748.1,185.1z"/>
			<path class="st3" d="M788.2,185.1h6.7c0.5,3.4,3.1,7.9,10.7,7.9c5.5,0,8.8-2.4,8.8-5.6c0-3.1-1.8-4.6-8.2-5.9l-3.6-0.7
				c-9.8-1.9-12.5-5.9-12.5-11.7c0-6.4,6-11.5,14.4-11.5c11.5,0,15.9,6.2,16.6,11.7h-7c-0.8-3.5-3.8-5.8-9.7-5.8c-5,0-7.5,2.2-7.5,5
				c0,2.9,2.3,4.2,7.8,5.3l3.9,0.8c8.7,1.7,13.3,5.5,13.3,12.2c0,6.8-5.6,11.9-16.2,11.9C793.2,198.9,788.5,191.9,788.2,185.1z"/>
			<path class="st3" d="M829.2,178.4c0-12.4,7.2-20.7,19.1-20.7c12.3,0,19.5,9.2,18.8,22.4h-30.4c0.2,8,4.4,12.8,11.5,12.8
				c6.3,0,9.2-3.3,10.7-7.1h7.5c-1.2,5.1-6,13.2-18,13.2C836,198.9,829.2,190.6,829.2,178.4z M859.2,174.4
				c-0.3-7.5-5.4-10.9-11-10.9c-6.5,0-10.6,3.6-11.5,10.9H859.2z"/>
			<path class="st3" d="M877.2,158.9h7.1v5.3c1.3-2.2,5.2-6.4,12.4-6.4c8.3,0,14.4,5.1,14.4,14.7v25.3h-7.3v-24.4
				c0-7.1-3.5-9.6-8.9-9.6c-7.5,0-10.4,5.9-10.4,13.7v20.3h-7.4v-38.9H877.2z"/>
			<path class="st3" d="M925.5,185.7v-21.2h-7.1v-5.6h7.1v-9.8h7.3v9.8h9.3v5.6h-9.3v21.4c0,4.2,2,5.5,5.6,5.5h3.6v6.3h-5.9
				C929.4,197.7,925.5,193.5,925.5,185.7z"/>
			<path class="st3" d="M948.4,178.4c0-12.4,7.2-20.7,19.1-20.7c12.3,0,19.5,9.2,18.8,22.4h-30.4c0.2,8,4.4,12.8,11.5,12.8
				c6.3,0,9.2-3.3,10.7-7.1h7.5c-1.2,5.1-6,13.2-18,13.2C955.3,198.9,948.4,190.6,948.4,178.4z M978.5,174.4
				c-0.3-7.5-5.4-10.9-11-10.9c-6.5,0-10.6,3.6-11.5,10.9H978.5z"/>
			<path class="st3" d="M996.5,158.9h7.1v7.3c1.6-3.3,5.6-7.7,12.9-7.7h1.1v7.4h-2c-8.6,0-11.8,5-11.8,12.7v19.1h-7.4v-38.8H996.5z"
				/>
		</g>
	</g>
</g>
</svg>
